HIERARCHY
ROOT Hips
{
  OFFSET 0 0 0
  CHANNELS 6 Xposition Yposition Zposition Zrotation Yrotation Xrotation
  JOINT LeftThigh
  {
    OFFSET 8.409438 0 -5.917753
    CHANNELS 3 Zrotation Yrotation Xrotation
    JOINT LeftLeg
    {
      OFFSET 0 0 -42.358652
      CHANNELS 3 Zrotation Yrotation Xrotation
      JOINT LeftFoot
      {
        OFFSET 0 0 -39.357303
        CHANNELS 3 Zrotation Yrotation Xrotation
      }
    }
  }
  JOINT RightThigh
  {
    OFFSET -8.409438 0 -5.917753
    CHANNELS 3 Zrotation Yrotation Xrotation
    JOINT RightLeg
    {
      OFFSET 0 0 -42.358652
      CHANNELS 3 Zrotation Yrotation Xrotation
      JOINT RightFoot
      {
        OFFSET 0 0 -39.357303
        CHANNELS 3 Zrotation Yrotation Xrotation
      }
    }
  }
  JOINT SpineLow
  {
    OFFSET 0 0 4.719101
    CHANNELS 3 Zrotation Yrotation Xrotation
    JOINT SpineMid
    {
      OFFSET 0 0 12.899191
      CHANNELS 3 Zrotation Yrotation Xrotation
      JOINT Chest
      {
        OFFSET 0 0 12.899191
        CHANNELS 3 Zrotation Yrotation Xrotation
        JOINT LeftShoulder
        {
          OFFSET 7.550562 1.41573 9.438202
          CHANNELS 3 Zrotation Yrotation Xrotation
          JOINT LeftArm
          {
            OFFSET 9.155056 0 4.247191
            CHANNELS 3 Zrotation Yrotation Xrotation
            JOINT LeftForearm
            {
              OFFSET 0 0 25.771955
              CHANNELS 3 Zrotation Yrotation Xrotation
              JOINT LeftHand
              {
                OFFSET 0 0 25.197169
                CHANNELS 3 Zrotation Yrotation Xrotation
              }
            }
          }
        }
        JOINT RightShoulder
        {
          OFFSET -7.550562 1.41573 9.438202
          CHANNELS 3 Zrotation Yrotation Xrotation
          JOINT RightArm
          {
            OFFSET -9.155056 0 4.247191
            CHANNELS 3 Zrotation Yrotation Xrotation
            JOINT RightForearm
            {
              OFFSET 0 0 -25.771955
              CHANNELS 3 Zrotation Yrotation Xrotation
              JOINT RightHand
              {
                OFFSET 0 0 -25.197169
                CHANNELS 3 Zrotation Yrotation Xrotation
              }
            }
          }
        }
        JOINT Neck
        {
          OFFSET 0 0 15.101124
          CHANNELS 3 Zrotation Yrotation Xrotation
          JOINT Head
          {
            OFFSET 0 0 11.325843
            CHANNELS 3 Zrotation Yrotation Xrotation
            End Site
            {
              OFFSET 0 0 14.157303
            }
          }
        }
      }
    }
  }
}
MOTION
Frames: 17
Frame Time: 0.0
0.0  89.887642  0.0  17.717789  -19.162774  -125.945717  10.739676  -35.87455  -51.224751  -29.419393  13.721072  26.69879  14.078995  -9.044433  8.267816  -20.492759  9.511333  -0.98838  24.447045  9.466627  38.512905  2.600181  3.592458  0.979542  -1.160728  2.683467  3.687615  -2.765143  7.490903  9.987255  -2.765143  7.490903  9.987255  -12.564469  23.645242  3.919999  -112.979827  57.308923  -51.547611  -32.935572  -19.605429  58.081837  71.438662  9.400233  -10.546086  11.606332  -3.608956  22.143739  141.789889  29.542043  79.358022  -15.51698  2.615754  -101.225001  98.17935  12.319717  -32.721057  6.957689  0.734552  6.89102  5.2107  0.629566  5.160626  
0.0  89.887642  0.0  18.027264  -21.281227  -125.893146  5.639324  -40.319895  -45.675166  -29.026166  0.424593  21.465523  11.990571  -6.864398  8.141604  -17.965837  8.21789  -0.437463  22.864703  10.019551  38.226966  2.558412  3.859516  0.810502  -0.620368  2.763773  3.742626  -1.26762  7.629361  10.200018  -1.26762  7.629361  10.200018  -13.38683  22.21036  4.039087  -113.58043  56.169833  -55.440235  -33.531917  -16.997127  60.290646  71.319559  10.07124  -9.225074  11.005676  -5.023225  21.812857  141.990136  29.773788  79.480704  -15.275262  2.0192  -101.063446  100.134179  12.634001  -33.611684  6.487458  -0.029094  6.497342  4.866556  0.047171  4.873967  
0.0  89.887642  0.0  18.433149  -23.307132  -126.093424  -16.369719  -51.33045  -28.690086  -13.838686  -8.765521  18.119913  14.325545  -5.442625  7.724999  -16.132462  7.418191  0.123807  21.142562  10.807896  37.888681  3.012693  4.060168  0.705951  -0.214836  2.878405  3.756602  -0.138037  7.879311  10.287624  -0.138037  7.879311  10.287623  -13.256569  20.705063  4.46925  -116.274693  56.10751  -58.921849  -33.952017  -16.894918  61.516594  71.106723  10.676455  -7.94546  10.949318  -6.418042  21.504127  142.053393  29.761866  79.218659  -14.869644  1.039302  -100.93019  102.967053  12.628701  -34.486176  6.412687  -0.700545  6.317397  4.817307  -0.459232  4.745959  
0.0  89.887642  0.0  18.332944  -23.680255  -125.925088  -28.597019  -60.946005  -21.317888  -0.075551  -11.352132  18.194894  13.735065  -1.086155  5.850135  -17.438335  7.876518  -0.270754  20.938405  11.119253  37.646277  4.115077  3.802881  0.873774  -0.038147  3.058795  3.738841  0.37209  8.343703  10.265397  0.37209  8.343703  10.265398  -13.238135  18.620995  5.157685  -119.902484  55.969632  -63.829804  -34.429648  -16.627129  63.452982  70.80045  11.175847  -6.701755  10.132392  -8.041434  21.143518  142.264184  29.491284  78.516463  -14.222014  0.083882  -100.758525  106.213858  12.411675  -35.072449  6.165292  -1.490487  6.25621  4.639544  -1.055008  4.707498  
0.0  89.887642  0.0  17.018357  -22.604805  -124.458116  -19.338856  -60.41294  -32.839484  2.695218  -14.170671  16.018125  12.87766  0.229464  8.587021  -20.814038  8.434401  -2.148798  22.600746  10.132512  38.009726  4.773007  2.993432  1.27516  -0.07869  3.119117  3.659446  0.260261  8.515148  10.043981  0.260261  8.515149  10.043981  -13.984506  16.394662  5.688965  -124.596883  55.556898  -69.671006  -34.761919  -16.505396  65.62539  70.486657  11.625693  -5.51078  8.329186  -9.457844  20.48935  142.249515  29.189022  77.284466  -13.912173  -0.495414  -100.74312  108.63231  12.220822  -36.195161  5.509902  -2.249371  6.103001  4.154857  -1.63236  4.597392  
0.0  89.887642  0.0  15.781807  -22.397024  -123.394301  1.785583  -55.06678  -51.681668  -0.72852  -10.443965  16.024779  10.500341  -0.71529  9.804909  -20.644856  8.081252  -3.352738  23.772881  8.206624  39.082866  3.698365  2.366477  1.525492  -0.005201  3.155726  3.725451  0.475978  8.602962  10.236016  0.475978  8.602962  10.236015  -14.647889  13.932957  5.919412  -127.539039  54.485818  -76.177962  -35.442328  -13.907785  69.35723  70.239204  12.034457  -4.426214  6.858056  -11.295436  18.740702  141.446701  28.71658  75.744177  -13.637301  -0.738515  -100.972315  110.05327  12.043348  -37.672345  4.941504  -3.104165  5.494844  3.733511  -2.284102  4.145564  
0.0  89.887642  0.0  14.945093  -22.037745  -123.046961  16.964382  -43.74991  -61.139761  -9.639699  -5.693884  16.450898  10.857104  -1.095673  10.394935  -18.106715  6.635019  -3.479965  23.298399  6.973309  40.745502  1.63785  2.603302  1.336253  0.06583  3.284566  4.037959  0.733715  8.937974  11.10912  0.733715  8.937974  11.109121  -15.029971  11.324601  5.490428  -131.941633  53.774006  -80.536903  -35.807128  -13.393811  71.475976  70.097665  12.666658  -3.446252  6.097642  -13.406334  15.827185  139.649161  28.550281  74.113148  -12.872772  -1.120735  -101.564334  110.606151  11.908812  -39.58762  4.464178  -4.048046  4.107612  3.374165  -3.006397  3.109233  
0.0  89.887642  0.0  14.464918  -21.622662  -122.623366  29.324162  -31.464489  -70.66585  -20.373769  4.25366  21.043072  12.26242  -1.552471  9.901686  -16.148231  3.813422  -2.774471  22.712381  7.840747  41.408661  -0.506425  2.947539  1.038908  0.08999  3.359741  4.307398  0.85043  9.133625  11.856408  0.85043  9.133625  11.856409  -15.126534  9.658068  4.953597  -135.900977  53.047696  -84.182175  -35.983148  -12.489764  73.155845  70.243141  13.395482  -2.579403  5.957218  -14.628769  13.225739  137.096534  29.121204  72.407129  -11.169961  -1.982485  -102.487033  110.386552  12.284715  -41.459257  4.161679  -4.581301  2.677188  3.139771  -3.418024  2.038187  
0.0  89.887642  0.0  13.256099  -20.562572  -121.477299  35.420699  -20.843703  -78.624628  -29.936158  15.245261  26.828617  15.131214  -0.701045  10.568667  -17.003013  1.78201  -1.886611  21.214576  9.983901  40.347674  -1.420634  3.586838  0.924646  -0.023971  3.068389  4.296765  0.483542  8.360775  11.800049  0.483542  8.360775  11.800049  -15.258747  10.25119  5.463392  -139.796688  52.016086  -87.797627  -35.269109  -11.471464  74.539965  70.12944  14.198239  -2.291426  5.233176  -13.867823  12.748383  134.310298  30.428168  70.68809  -8.59563  -3.501941  -103.756856  109.961395  13.22308  -43.11525  3.552681  -4.15865  2.343064  2.679354  -3.105554  1.780809  
0.0  89.887642  0.0  12.314677  -19.859564  -121.624452  37.371571  -18.055072  -79.657755  -30.855869  24.329229  31.509689  13.834579  -0.428715  10.778168  -19.805361  2.04911  -0.534602  19.761164  12.385586  39.108775  0.480137  4.421134  0.56451  -0.045302  2.708338  4.23711  0.353137  7.384677  11.621393  0.353137  7.384676  11.621393  -15.226137  11.885269  7.002446  -143.47422  50.971808  -91.501377  -35.093831  -10.348096  76.351318  70.568533  15.605886  -1.506719  4.250658  -12.46567  14.137867  132.012619  32.25129  69.179789  -5.898787  -5.661885  -105.196671  109.78421  14.193938  -44.686965  2.749385  -3.535103  3.005813  2.078849  -2.63795  2.269619  
0.0  89.887642  0.0  10.849062  -19.784828  -119.808207  37.085357  -18.070534  -82.002016  -25.962812  31.96211  39.07122  11.277937  -1.194969  10.316157  -22.197859  1.69199  -1.125341  17.401356  14.629624  37.902243  4.166023  3.953378  0.080503  -0.28004  2.182052  3.746385  -0.426186  5.991274  10.240795  -0.426186  5.991274  10.240795  -14.077091  14.293512  8.238199  -147.731461  50.248668  -96.486327  -34.839678  -9.017446  77.660442  71.303779  16.408761  -0.835174  4.394432  -10.293795  16.507372  130.296272  34.384069  67.651433  -3.809401  -7.858191  -106.372879  109.34494  14.578732  -46.37891  2.522049  -2.518952  4.084017  1.908175  -1.872501  3.072981  
0.0  89.887642  0.0  9.392385  -19.471498  -118.123547  35.90846  -22.872058  -86.391971  -15.776573  40.017771  48.897958  11.366761  -0.909507  10.466039  -22.960019  1.32281  -1.96227  15.428762  15.047768  37.013714  6.447726  3.378871  0.401776  -0.616403  1.844763  3.379495  -1.425848  5.11697  9.206679  -1.425848  5.116971  9.206679  -12.333035  15.577485  8.801481  -152.458695  49.611243  -102.118097  -34.904931  -8.135787  78.939218  71.686176  17.397159  0.006175  5.220563  -9.267704  18.051557  128.46568  36.661371  65.68494  -2.53337  -9.282272  -107.062303  108.493383  14.210475  -47.314088  2.762388  -1.965521  4.829375  2.08728  -1.452457  3.63065  
0.0  89.887642  0.0  8.268596  -19.083234  -117.196315  34.37001  -31.084988  -89.741433  2.76406  45.229538  62.607791  11.59943  -1.031415  9.988982  -21.793797  0.987464  -2.313333  15.741045  13.043974  37.17868  4.6477  2.87926  0.956794  -0.726109  1.798726  3.453379  -1.72624  5.008344  9.400974  -1.726239  5.008344  9.400974  -11.683377  14.882034  8.453148  -156.953101  48.821447  -107.052887  -34.58381  -7.678603  80.256629  71.741796  18.523782  0.398679  4.89935  -10.129416  17.28325  126.447585  38.88407  63.107619  -2.190352  -9.785682  -107.337533  107.075199  13.017118  -46.733347  2.341676  -2.312869  4.521906  1.773255  -1.71747  3.399893  
0.0  89.887642  0.0  7.354192  -18.6512  -116.193703  31.746304  -37.641298  -88.117903  17.344814  47.25938  72.001432  12.600799  -0.385032  9.152723  -19.577197  0.214929  -3.174756  16.298265  10.413838  37.954781  1.810782  2.494391  1.231863  -0.687416  1.567212  3.39801  -1.656775  4.370295  9.25508  -1.656775  4.370296  9.25508  -11.732722  15.346226  9.062682  -161.563363  47.385203  -111.854911  -34.352888  -6.957893  80.904391  72.550938  19.070631  1.306762  2.942383  -10.108387  17.160392  124.002209  40.801155  59.800954  -2.389742  -9.68886  -107.385586  105.406129  10.915763  -44.721231  1.254761  -1.889889  4.570367  0.955187  -1.408134  3.431363  
0.0  89.887642  0.0  6.824474  -18.317408  -115.341354  28.631759  -41.264881  -82.824118  27.447606  49.669032  77.523717  14.074026  -0.126124  8.984531  -16.844821  -0.409977  -3.79546  15.45712  8.756113  38.129819  0.307795  2.114323  1.27111  -0.751402  1.407767  3.357417  -1.855993  3.943338  9.142344  -1.855993  3.943339  9.142344  -10.944472  15.490512  9.780825  -165.193878  45.04114  -115.935117  -33.649233  -5.663631  81.181849  73.700008  19.669398  2.436772  1.816436  -10.014147  16.472908  120.634048  42.301165  55.32584  -2.893238  -9.086745  -107.158189  103.654984  7.982053  -42.231012  0.651882  -1.397743  4.331907  0.498826  -1.04375  3.250264  
0.0  89.887642  0.0  6.622341  -18.080705  -114.463152  27.249675  -42.290799  -77.321245  35.70196  52.362067  84.026579  14.98573  0.260414  8.733045  -14.521138  -0.737863  -4.425784  13.924857  8.102522  38.163972  -0.418882  1.914091  1.02512  -0.939699  1.326403  3.279548  -2.385691  3.744698  8.919953  -2.385691  3.744698  8.919953  -9.628787  15.760889  10.655535  -166.237624  42.246412  -118.436892  -31.515311  -3.385152  81.152276  75.044784  20.477578  3.627129  1.962766  -10.087153  15.56462  116.343643  43.358043  50.256625  -3.59788  -8.189779  -106.804748  101.576266  4.985582  -40.166377  0.687773  -0.983607  3.991757  0.522269  -0.733251  2.994856  
0.0  89.887642  0.0  6.401175  -17.287219  -113.576948  25.591687  -42.098064  -72.734035  43.897302  53.321093  92.998557  14.954215  0.836972  8.161029  -13.665253  -0.58717  -5.30225  11.694886  8.385157  37.92593  -0.520274  1.861671  1.100007  -1.175958  1.077639  3.105208  -3.072035  3.090148  8.438681  -3.072035  3.090148  8.43868  -8.878622  17.112307  11.597992  -166.705572  40.303478  -120.877396  -29.801071  -0.270039  79.779327  77.047707  20.314281  6.721612  1.883546  -8.935401  15.397405  111.58276  44.103007  44.952736  -4.366011  -7.375853  -106.362412  99.029507  2.52908  -38.777111  0.404706  -0.075453  3.927745  0.304029  -0.053992  2.94586  
